<?xml version="1.0" encoding="utf-8"?>
<!-- Generator: Adobe Illustrator 24.1.1, SVG Export Plug-In . SVG Version: 6.00 Build 0)  -->
<svg version="1.1" id="Layer_1" xmlns="http://www.w3.org/2000/svg" xmlns:xlink="http://www.w3.org/1999/xlink" x="0px" y="0px"
	 viewBox="0 0 512 512" style="enable-background:new 0 0 512 512;" xml:space="preserve">
<g>
	<path d="M256,253.9c5.7,0,13.2-0.4,22.4-1.1s16.5-1.1,21.9-1.1s11,0.7,17.1,2.1c6,1.4,11.2,3.9,15.5,7.5c9.2,9.2,13.9,19.9,13.9,32
		c0,22.8-7.6,37.7-22.9,44.8s-37.9,10.7-67.7,10.7s-52.4-3.6-67.7-10.7s-22.9-22-22.9-44.8c0-12.1,4.6-22.8,13.9-32
		c4.3-3.6,9.4-6,15.5-7.5c6-1.4,11.7-2.1,17.1-2.1c5.3,0,12.6,0.4,21.9,1.1C242.8,253.5,250.3,253.9,256,253.9 M213.3,322.1
		c5,0,9.1-2.5,12.3-7.5c3.2-5,4.8-10.7,4.8-17.1c0-16.4-5.7-24.5-17.1-24.5c-11.4,0-17.1,8.2-17.1,24.5c0,6.4,1.6,12.1,4.8,17.1
		S208.4,322.1,213.3,322.1 M298.7,322.1c5,0,9.2-2.5,12.8-7.5s5.3-10.7,5.3-17.1c0-7.1-1.8-13-5.3-17.6s-7.8-6.9-12.8-6.9
		c-11.4,0-17.1,8.2-17.1,24.5c0,6.4,1.6,12.1,4.8,17.1C289.6,319.6,293.7,322.1,298.7,322.1 M256,0c71.1,0,131.6,24.9,181.3,74.7
		S512,184.9,512,256c0,70.4-24.9,130.7-74.7,180.8S327.1,512,256,512c-70.4,0-130.7-25.1-180.8-75.2S0,326.4,0,256
		c0-71.1,25.1-131.6,75.2-181.3S185.6,0,256,0 M279.5,360.5c66.8,0,100.3-32.7,100.3-98.1c0-19.9-6.8-37.3-20.3-52.3
		c1.4-1.4,1.6-8.7,0.5-21.9s-4.1-25.8-9.1-37.9c-15.6,2.1-35.9,11.4-60.8,27.7c-7.1-2.1-18.5-3.2-34.1-3.2
		c-14.2,0-25.6,1.1-34.1,3.2c-10.7-7.1-21.2-13-31.5-17.6c-10.3-4.6-17.6-7.6-21.9-9.1l-7.5-1.1c-5,12.1-8,24.7-9.1,37.9
		s-0.9,20.4,0.5,21.9c-13.5,14.9-20.3,32.4-20.3,52.3c0,65.4,33.4,98.1,100.3,98.1H256H279.5"/>
</g>
</svg>
