<?xml version="1.0" encoding="utf-8"?>
<!-- Generator: Adobe Illustrator 24.1.1, SVG Export Plug-In . SVG Version: 6.00 Build 0)  -->
<svg version="1.1" id="Layer_1" xmlns="http://www.w3.org/2000/svg" xmlns:xlink="http://www.w3.org/1999/xlink" x="0px" y="0px"
	 viewBox="0 0 512 512" style="enable-background:new 0 0 512 512;" xml:space="preserve">
<g>
	<path d="M204,14.6c-23.3,5.3-46.5,12.5-68.3,23.4c0.5,19.2,1.7,37.5,4.3,56.1c-8.4,5.4-17.3,10.1-25.1,16.4
		c-8,6.1-16.2,12-23.4,19.2c-14.5-9.5-29.7-18.5-45.6-26.4c-17,18.3-32.8,38-45.9,60.1c9.7,15.8,20,30.6,31,44.7h0.3v135.6l0.8,0.1
		l83.2,8c4.3,0.4,7.7,3.9,8,8.3l2.6,36.7l72.5,5.2l5-33.8c0.7-4.4,4.4-7.7,8.8-7.7h87.8c4.4,0,8.2,3.3,8.8,7.7l5,33.8l72.5-5.2
		l2.6-36.7c0.3-4.4,3.7-7.9,8.1-8.3l83.1-8l0.8-0.1V208h0.3c11-14,21.2-28.8,30.9-44.7c-12.9-22.1-28.8-41.8-45.9-60.1
		c-15.7,7.9-31.1,16.9-45.6,26.4c-7.3-7.2-15.3-13.1-23.3-19.2c-7.9-6.3-16.8-11-25.2-16.4c2.5-18.6,3.7-36.9,4.3-56.1
		c-21.7-10.9-44.8-18.2-68.3-23.4c-9.3,15.7-17.8,32.8-25.3,49.3c-8.8-1.4-17.7-2-26.6-2.1h-0.4c-8.8,0.1-17.7,0.7-26.6,2.1
		C221.8,47.3,213.3,30.3,204,14.6L204,14.6z M138.2,213.1c27.7,0,50.1,22.5,50.1,50.2c0,27.7-22.4,50.1-50.1,50.1
		s-50.1-22.4-50.1-50.1C88.1,235.6,110.5,213.1,138.2,213.1z M373.9,213.1c27.7,0,50.1,22.5,50.1,50.2c0,27.7-22.4,50.1-50.1,50.1
		c-27.7,0-50.1-22.4-50.1-50.1C323.8,235.6,346.2,213.1,373.9,213.1z M143,233c-18.3,0-33.3,14.8-33.3,33.3
		c0,18.3,14.9,33.2,33.3,33.2c18.4,0,33.3-14.8,33.3-33.2C176.3,247.8,161.4,233,143,233z M369.1,233c-18.3,0-33.3,14.8-33.3,33.3
		c0,18.3,14.9,33.2,33.3,33.2c18.4,0,33.3-14.8,33.3-33.2C402.3,247.8,387.5,233,369.1,233z M256.1,242.7c8.9,0,16.2,6.5,16.2,14.6
		v46.2c0,8.1-7.3,14.7-16.2,14.7c-8.9,0-16.2-6.6-16.2-14.7v-46.2C239.9,249.2,247.1,242.7,256.1,242.7z M31.2,361.5
		c0,8.1,0.1,16.8,0.1,18.6c0,79,100.2,116.9,224.6,117.3h0.3c124.4-0.4,224.5-38.3,224.5-117.3c0-1.7,0.1-10.5,0.2-18.6l-74.8,7.2
		l-2.6,36.9c-0.3,4.4-3.8,8-8.3,8.3l-89.3,6.3c-4.3,0-8.2-3.2-8.8-7.6l-5.1-34.5h-72.3l-5.1,34.5c-0.7,4.6-4.8,7.9-9.5,7.6
		l-88.5-6.3c-4.4-0.3-8-3.8-8.3-8.3l-2.5-36.9L31.2,361.5L31.2,361.5z" fill="#508CBE"/>
</g>
</svg>
