<?xml version="1.0" encoding="utf-8"?>
<!-- Generator: Adobe Illustrator 24.1.1, SVG Export Plug-In . SVG Version: 6.00 Build 0)  -->
<svg version="1.1" id="Layer_1" xmlns="http://www.w3.org/2000/svg" xmlns:xlink="http://www.w3.org/1999/xlink" x="0px" y="0px"
	 viewBox="0 0 512 512" style="enable-background:new 0 0 512 512;" xml:space="preserve">
<style type="text/css">
	.st0{fill-rule:evenodd;clip-rule:evenodd;fill:#E535AB;}
</style>
<g>
	<path class="st0" d="M299.7,58.7L405,119.5c3-3.1,6.4-5.9,10.4-8.2c21.8-12.6,49.7-5.1,62.4,16.7c12.6,21.8,5.1,49.7-16.7,62.4
		c-3.9,2.2-8,3.8-12.2,4.8v121.6c4.1,1,8.2,2.6,12,4.8c22,12.7,29.4,40.5,16.7,62.4c-12.6,21.8-40.5,29.3-62.4,16.7
		c-4.3-2.5-8.1-5.6-11.3-9.2L299.3,452c1.5,4.5,2.3,9.4,2.3,14.4c0,25.1-20.4,45.6-45.6,45.6c-25.2,0-45.6-20.4-45.6-45.6
		c0-4.5,0.6-8.8,1.8-12.9L107,392.7c-2.9,3.1-6.3,5.8-10.2,8c-22,12.6-49.8,5.1-62.4-16.7c-12.6-21.8-5.1-49.7,16.7-62.4
		c3.9-2.2,7.9-3.8,12-4.8V195.2c-4.2-1-8.3-2.6-12.2-4.8c-21.8-12.6-29.3-40.5-16.7-62.4c12.6-21.8,40.5-29.3,62.4-16.7
		c3.9,2.3,7.4,5,10.3,8.1l105.3-60.8c-1.2-4.1-1.9-8.5-1.9-13C210.4,20.4,230.8,0,256,0c25.2,0,45.6,20.4,45.6,45.6
		C301.6,50.2,301,54.5,299.7,58.7z M288.8,77.4l105.5,60.9c-3.3,11.5-2.1,24.2,4.3,35.3c6.4,11.2,16.9,18.6,28.5,21.5v121.8
		c-0.6,0.1-1.2,0.3-1.8,0.5L287.6,78.6C288,78.2,288.4,77.8,288.8,77.4z M224.5,78.6L86.7,317.4c-0.6-0.2-1.2-0.3-1.8-0.5V195.1
		c11.6-2.9,22.1-10.3,28.5-21.5c6.4-11.2,7.6-23.9,4.3-35.4l105.5-60.9C223.6,77.8,224,78.2,224.5,78.6z M268.7,89.5l137.8,238.7
		c-3.1,2.9-5.8,6.4-8,10.2c-2.2,3.9-3.8,7.9-4.8,12H118.3c-1-4.1-2.6-8.2-4.8-12c-2.2-3.9-5-7.3-8-10.2L243.3,89.5
		c4,1.2,8.3,1.8,12.7,1.8C260.4,91.3,264.7,90.6,268.7,89.5z M289.7,435.6l104.8-60.5c-0.3-1-0.6-2-0.8-3H118.2
		c-0.1,0.6-0.3,1.2-0.5,1.8l105.4,60.8c8.3-8.6,19.9-14,32.9-14C269.4,420.7,281.4,426.5,289.7,435.6z"/>
</g>
</svg>
