<?xml version="1.0" encoding="utf-8"?>
<!-- Generator: Adobe Illustrator 24.1.1, SVG Export Plug-In . SVG Version: 6.00 Build 0)  -->
<svg version="1.1" id="Layer_1" xmlns="http://www.w3.org/2000/svg" xmlns:xlink="http://www.w3.org/1999/xlink" x="0px" y="0px"
	 viewBox="0 0 512 512" style="enable-background:new 0 0 512 512;" xml:space="preserve">
<g>
	<path d="M474.1,0H37.8C16.9,0,0,16.5,0,36.9v438.2C0,495.4,16.9,512,37.8,512h436.3c20.9,0,37.9-16.6,37.9-36.9V36.9
		C512,16.5,495,0,474.1,0z M151.9,436.3h-76V192h76V436.3z M113.9,158.6c-24.3,0-44-19.7-44-44c0-24.3,19.7-44,44-44
		c24.3,0,44,19.7,44,44C157.9,138.8,138.1,158.6,113.9,158.6z M436.3,436.3h-75.9V317.5c0-28.3-0.6-64.8-39.5-64.8
		c-39.5,0-45.5,30.9-45.5,62.7v120.9h-75.9V192h72.9v33.4h1c10.1-19.2,34.9-39.5,71.9-39.5c76.8,0,91,50.6,91,116.4L436.3,436.3
		L436.3,436.3z"/>
</g>
</svg>
